<svg xmlns="http://www.w3.org/2000/svg" xmlns:xlink="http://www.w3.org/1999/xlink" style="margin:auto;background:#01080f;display:block;z-index:1;position:relative" width="1055" height="663" preserveAspectRatio="xMidYMid" viewBox="0 0 1055 663">
<g transform="translate(527.5,331.5) scale(1,1) translate(-527.5,-331.5)"><defs>
  <path id="path-winxz6huak-1" d="M-35 -35L35 -35L35 35L-35 35Z" fill="none" stroke="inherit" stroke-width="2.962962962962963" transform="scale(0.27)"></path>
  <path id="path-winxz6huak-2" d="M0 -37A37 37 0 0 1 0 37A37 37 0 0 1 0 -37" fill="none" stroke="inherit" stroke-width="2.962962962962963" transform="scale(0.27)"></path>
  <path id="path-winxz6huak-3" d="M0 -34.641L40 34.641L-40 34.641Z" fill="none" stroke="inherit" stroke-width="2.962962962962963" transform="scale(0.27)"></path>
</defs><path id="path0" d="M 62.35220016684974 489.1781141531377
c 0 59.96662829218173 -14.672685645959358 17.224457062647943 -31.8971427086073 17.224457062647943
S -1.4420852503648653 549.1447424453195 -1.4420852503648653 489.1781141531377
s 14.672685645959358 -17.224457062647943 31.8971427086073 -17.224457062647943
S 62.35220016684974 429.211485860956 62.35220016684974 489.1781141531377
z" fill="none" stroke="none"></path>
<use xlink:href="#path-winxz6huak-1" x="0" y="0" stroke="#d88c51">
  <animateMotion begin="-2.753398463912818s" dur="17.827629529365364s" keyPoints="0;1" keyTimes="0;1" repeatCount="indefinite" calcMode="linear">
    <mpath xlink:href="#path0"></mpath>
  </animateMotion>
</use><path id="path1" d="M 100.89057386329492 366.29398447054183
c 0 19.961333519950983 -4.884156074030559 5.733574521688049 -10.617730595718609 5.733574521688049
S 79.6551126718577 386.2553179904928 79.6551126718577 366.29398447054183
s 4.884156074030559 -5.733574521688049 10.617730595718609 -5.733574521688049
S 100.89057386329492 346.33265095059085 100.89057386329492 366.29398447054183
z" fill="none" stroke="none"></path>
<use xlink:href="#path-winxz6huak-1" x="0" y="0" stroke="#1d0e0b">
  <animateMotion begin="-4.9443119707414676s" dur="10.93268850427197s" keyPoints="0;1" keyTimes="0;1" repeatCount="indefinite" calcMode="linear">
    <mpath xlink:href="#path1"></mpath>
  </animateMotion>
</use><path id="path2" d="M 214.99681481347017 215.3338025359203
c 0 25.549017068520914 -6.25135524017001 7.338547455851752 -13.589902696021763 7.338547455851752
S 187.81700942142663 240.88281960444124 187.81700942142663 215.3338025359203
s 6.25135524017001 -7.338547455851752 13.589902696021763 -7.338547455851752
S 214.99681481347017 189.7847854673994 214.99681481347017 215.3338025359203
z" fill="none" stroke="none"></path>
<use xlink:href="#path-winxz6huak-2" x="0" y="0" stroke="#774023">
  <animateMotion begin="-0.2632730360907032s" dur="16.004881564190566s" keyPoints="1;0" keyTimes="0;1" repeatCount="indefinite" calcMode="linear">
    <mpath xlink:href="#path2"></mpath>
  </animateMotion>
</use><path id="path3" d="M 285.4678226445485 616.4493437659697
c 0 45.043034625863655 -11.021168046753871 12.937892924450198 -23.959060971204067 12.937892924450198
S 237.5497007021404 661.4923783918334 237.5497007021404 616.4493437659697
s 11.021168046753871 -12.937892924450198 23.959060971204067 -12.937892924450198
S 285.4678226445485 571.406309140106 285.4678226445485 616.4493437659697
z" fill="none" stroke="none"></path>
<use xlink:href="#path-winxz6huak-1" x="0" y="0" stroke="#774023">
  <animateMotion begin="-1.4736964516114004s" dur="16.69037748281592s" keyPoints="1;0" keyTimes="0;1" repeatCount="indefinite" calcMode="linear">
    <mpath xlink:href="#path3"></mpath>
  </animateMotion>
</use><path id="path4" d="M 334.4467154393777 253.48287786785656
c 0 29.35393009071606 -7.182344596664567 8.431448004780144 -15.613792601444711 8.431448004780144
S 303.21913023648835 282.8368079585726 303.21913023648835 253.48287786785656
s 7.182344596664567 -8.431448004780144 15.613792601444711 -8.431448004780144
S 334.4467154393777 224.1289477771405 334.4467154393777 253.48287786785656
z" fill="none" stroke="none"></path>
<use xlink:href="#path-winxz6huak-3" x="0" y="0" stroke="#1d0e0b">
  <animateMotion begin="-0.8785195128657841s" dur="16.414263505049068s" keyPoints="0;1" keyTimes="0;1" repeatCount="indefinite" calcMode="linear">
    <mpath xlink:href="#path4"></mpath>
  </animateMotion>
</use><path id="path5" d="M 442.0814111689369 135.94447907194703
c 0 28.97025626926063 -7.08846695949994 8.321243822021671 -15.40971078152161 8.321243822021671
S 411.2619896058937 164.91473534120766 411.2619896058937 135.94447907194703
s 7.08846695949994 -8.321243822021671 15.40971078152161 -8.321243822021671
S 442.0814111689369 106.9742228026864 442.0814111689369 135.94447907194703
z" fill="none" stroke="none"></path>
<use xlink:href="#path-winxz6huak-2" x="0" y="0" stroke="#774023">
  <animateMotion begin="-4.701930931044538s" dur="10.370842629162256s" keyPoints="1;0" keyTimes="0;1" repeatCount="indefinite" calcMode="linear">
    <mpath xlink:href="#path5"></mpath>
  </animateMotion>
</use><path id="path6" d="M 526.9714548893166 288.3161571892775
c 0 54.17441070037682 -13.255440916049645 15.560734988406109 -28.816175904455754 15.560734988406109
S 469.33910308040515 342.4905678896543 469.33910308040515 288.3161571892775
s 13.255440916049645 -15.560734988406109 28.816175904455754 -15.560734988406109
S 526.9714548893166 234.14174648890065 526.9714548893166 288.3161571892775
z" fill="none" stroke="none"></path>
<use xlink:href="#path-winxz6huak-1" x="0" y="0" stroke="#d88c51">
  <animateMotion begin="-4.916875150916148s" dur="17.585540183319466s" keyPoints="1;0" keyTimes="0;1" repeatCount="indefinite" calcMode="linear">
    <mpath xlink:href="#path6"></mpath>
  </animateMotion>
</use><path id="path7" d="M 570.3418728670474 235.4174786001576
c 0 32.960961260326116 -8.064916053058516 9.467510149242607 -17.532426202301124 9.467510149242607
S 535.2770204624451 268.3784398604837 535.2770204624451 235.4174786001576
s 8.064916053058516 -9.467510149242607 17.532426202301124 -9.467510149242607
S 570.3418728670474 202.4565173398315 570.3418728670474 235.4174786001576
z" fill="none" stroke="none"></path>
<use xlink:href="#path-winxz6huak-3" x="0" y="0" stroke="#d88c51">
  <animateMotion begin="-1.3491223923269324s" dur="18.240876378387206s" keyPoints="0;1" keyTimes="0;1" repeatCount="indefinite" calcMode="linear">
    <mpath xlink:href="#path7"></mpath>
  </animateMotion>
</use><path id="path8" d="M 673.2113961896684 529.2041105163303
c 0 55.171342471124504 -13.49937103016876 15.847087731067676 -29.346458761236434 15.847087731067676
S 614.5184786671955 584.3754529874548 614.5184786671955 529.2041105163303
s 13.49937103016876 -15.847087731067676 29.346458761236434 -15.847087731067676
S 673.2113961896684 474.0327680452058 673.2113961896684 529.2041105163303
z" fill="none" stroke="none"></path>
<use xlink:href="#path-winxz6huak-2" x="0" y="0" stroke="#1d0e0b">
  <animateMotion begin="-3.3410012723804936s" dur="12.060106438954765s" keyPoints="1;0" keyTimes="0;1" repeatCount="indefinite" calcMode="linear">
    <mpath xlink:href="#path8"></mpath>
  </animateMotion>
</use><path id="path9" d="M 728.3166332773513 113.9169580921794
c 0 24.615547010905154 -6.022952992029984 7.070423077600417 -13.0933760696304 7.070423077600417
S 702.1298811380906 138.53250510308456 702.1298811380906 113.9169580921794
s 6.022952992029984 -7.070423077600417 13.0933760696304 -7.070423077600417
S 728.3166332773513 89.30141108127424 728.3166332773513 113.9169580921794
z" fill="none" stroke="none"></path>
<use xlink:href="#path-winxz6huak-3" x="0" y="0" stroke="#d88c51">
  <animateMotion begin="-2.1236915981489846s" dur="13.008530877544324s" keyPoints="1;0" keyTimes="0;1" repeatCount="indefinite" calcMode="linear">
    <mpath xlink:href="#path9"></mpath>
  </animateMotion>
</use><path id="path10" d="M 784.507553113363 97.17767717159099
c 0 20.456806350177327 -5.005388787809346 5.875891185689233 -10.881279973498579 5.875891185689233
S 762.7449931663657 117.63448352176832 762.7449931663657 97.17767717159099
s 5.005388787809346 -5.875891185689233 10.881279973498579 -5.875891185689233
S 784.507553113363 76.72087082141365 784.507553113363 97.17767717159099
z" fill="none" stroke="none"></path>
<use xlink:href="#path-winxz6huak-3" x="0" y="0" stroke="#d88c51">
  <animateMotion begin="-3.358474982602683s" dur="13.818746368870947s" keyPoints="0;1" keyTimes="0;1" repeatCount="indefinite" calcMode="linear">
    <mpath xlink:href="#path10"></mpath>
  </animateMotion>
</use><path id="path11" d="M 885.163666066349 46.369407216392005
c 0 46.79005059589831 -11.448629401124053 13.439695383928239 -24.88832478505229 13.439695383928239
S 835.3870164962444 93.15945781229031 835.3870164962444 46.369407216392005
s 11.448629401124053 -13.439695383928239 24.88832478505229 -13.439695383928239
S 885.163666066349 -0.42064337950630204 885.163666066349 46.369407216392005
z" fill="none" stroke="none"></path>
<use xlink:href="#path-winxz6huak-3" x="0" y="0" stroke="#774023">
  <animateMotion begin="-1.1739098221215472s" dur="13.28446366611926s" keyPoints="1;0" keyTimes="0;1" repeatCount="indefinite" calcMode="linear">
    <mpath xlink:href="#path11"></mpath>
  </animateMotion>
</use><path id="path12" d="M 950.2889888500561 562.621707522633
c 0 23.41660969602809 -5.7295959894536805 6.726047465880408 -12.455643455334089 6.726047465880408
S 925.3777019393879 586.0383172186611 925.3777019393879 562.621707522633
s 5.7295959894536805 -6.726047465880408 12.455643455334089 -6.726047465880408
S 950.2889888500561 539.2050978266049 950.2889888500561 562.621707522633
z" fill="none" stroke="none"></path>
<use xlink:href="#path-winxz6huak-2" x="0" y="0" stroke="#1d0e0b">
  <animateMotion begin="-2.0229199804920626s" dur="19.558202160110557s" keyPoints="0;1" keyTimes="0;1" repeatCount="indefinite" calcMode="linear">
    <mpath xlink:href="#path12"></mpath>
  </animateMotion>
</use><path id="path13" d="M 1001.0718518233609 544.1702989818574
c 0 30.914530503978597 -7.564193633952209 8.879705570291724 -16.443899204243934 8.879705570291724
S 968.184053414873 575.084829485836 968.184053414873 544.1702989818574
s 7.564193633952209 -8.879705570291724 16.443899204243934 -8.879705570291724
S 1001.0718518233609 513.2557684778787 1001.0718518233609 544.1702989818574
z" fill="none" stroke="none"></path>
<use xlink:href="#path-winxz6huak-1" x="0" y="0" stroke="#774023">
  <animateMotion begin="-0.31517081790497725s" dur="16.26870290841464s" keyPoints="0;1" keyTimes="0;1" repeatCount="indefinite" calcMode="linear">
    <mpath xlink:href="#path13"></mpath>
  </animateMotion>
</use></g>
</svg>